<svg width="80" height="80" viewBox="0 0 80 80" fill="none" xmlns="http://www.w3.org/2000/svg">
<g clip-path="url(#clip0_242_13275)">
<path d="M16.667 45H6.66699V48.3333H16.667V45Z" fill="black"/>
<path d="M16.667 31.6665H6.66699V34.9998H16.667V31.6665Z" fill="black"/>
<path d="M16.667 18.333H6.66699V21.6663H16.667V18.333Z" fill="black"/>
<path d="M73.3333 39.9999L66.6667 26.6666H60V20.1916C60 16.5249 57 13.5249 53.3333 13.5249H26.6667C23 13.5249 20 16.5249 20 20.1916V53.3332C20 56.9999 23 59.9999 26.6667 59.9999H30C30 63.6816 32.985 66.6666 36.6667 66.6666C40.3483 66.6666 43.3333 63.6816 43.3333 59.9999H53.3333H55C55 63.6816 57.985 66.6666 61.6667 66.6666C65.3483 66.6666 68.3333 63.6816 68.3333 59.9999H73.3333V39.9999ZM65 59.9999C65 61.8382 63.505 63.3332 61.6667 63.3332C59.8283 63.3332 58.3333 61.8382 58.3333 59.9999C58.3333 58.1616 59.8283 56.6666 61.6667 56.6666C63.505 56.6666 65 58.1616 65 59.9999ZM40 59.9999C40 61.8382 38.505 63.3332 36.6667 63.3332C34.8283 63.3332 33.3333 61.8382 33.3333 59.9999C33.3333 58.1616 34.8283 56.6666 36.6667 56.6666C38.505 56.6666 40 58.1616 40 59.9999ZM36.6667 53.3332C34.205 53.3332 32.08 54.6816 30.925 56.6666H26.6667C24.8283 56.6666 23.3333 55.1716 23.3333 53.3332V20.1916C23.3333 18.3532 24.8283 16.8582 26.6667 16.8582H53.3333C55.1717 16.8582 56.6667 18.3532 56.6667 20.1916V29.9999V53.3332C56.6667 55.1716 55.1717 56.6666 53.3333 56.6666H42.4083C41.2533 54.6816 39.1283 53.3332 36.6667 53.3332ZM70 56.6666H67.4083C66.2533 54.6816 64.1283 53.3332 61.6667 53.3332C61.0783 53.3332 60.5183 53.4332 59.975 53.5766C59.9783 53.4932 60 53.4166 60 53.3332V29.9999H64.6067L70 40.7866V56.6666Z" fill="black"/>
</g>
<defs>
<clipPath id="clip0_242_13275">
<rect width="80" height="80" fill="white"/>
</clipPath>
</defs>
</svg>
