<svg width="80" height="80" viewBox="0 0 80 80" fill="none" xmlns="http://www.w3.org/2000/svg">
<g clip-path="url(#clip0_242_13268)">
<path d="M6.5752 33.3781H13.2419V73.3781H66.5752V33.3781H73.2419L39.9085 6.71143L6.5752 33.3781ZM63.2419 30.0448V33.3781V70.0448H16.5752V33.3781V30.0448H16.0785L39.9085 10.9798L63.7385 30.0448H63.2419Z" fill="black"/>
<path d="M31.667 38.3333C31.667 42.935 35.3987 46.6667 40.0003 46.6667C44.602 46.6667 48.3337 42.935 48.3337 38.3333C48.3337 33.7317 44.602 30 40.0003 30C35.3987 30 31.667 33.7317 31.667 38.3333ZM40.0003 33.3333C42.757 33.3333 45.0003 35.5767 45.0003 38.3333C45.0003 41.09 42.757 43.3333 40.0003 43.3333C37.2437 43.3333 35.0003 41.09 35.0003 38.3333C35.0003 35.5767 37.2437 33.3333 40.0003 33.3333Z" fill="black"/>
<path d="M26.667 60.0448H53.4253C53.4253 52.6532 47.4387 46.6665 40.047 46.6665C32.6553 46.6665 26.667 52.6532 26.667 60.0448ZM49.5237 56.7115H30.5687C31.947 52.8065 35.6753 49.9998 40.0453 49.9998C44.4153 49.9998 48.1453 52.8065 49.5237 56.7115Z" fill="black"/>
</g>
<defs>
<clipPath id="clip0_242_13268">
<rect width="80" height="80" fill="white"/>
</clipPath>
</defs>
</svg>
