<svg width="25" height="24" viewBox="0 0 25 24" fill="none" xmlns="http://www.w3.org/2000/svg">
<g clip-path="url(#clip0_429_800)">
<path d="M19.3605 15L22.194 6.5H6.8605L5.8605 3.5H3V4.5H5.1395L8.464 14.474L6.2305 19.5H20V18.5H7.7695L9.325 15H19.3605ZM20.806 7.5L18.6395 14H9.3605L7.194 7.5H20.806Z" fill="white"/>
<path d="M10.5 22C11.0523 22 11.5 21.5523 11.5 21C11.5 20.4477 11.0523 20 10.5 20C9.94772 20 9.5 20.4477 9.5 21C9.5 21.5523 9.94772 22 10.5 22Z" fill="white"/>
<path d="M16.5 22C17.0523 22 17.5 21.5523 17.5 21C17.5 20.4477 17.0523 20 16.5 20C15.9477 20 15.5 20.4477 15.5 21C15.5 21.5523 15.9477 22 16.5 22Z" fill="white"/>
</g>
<defs>
<clipPath id="clip0_429_800">
<rect width="24" height="24" fill="white" transform="translate(0.5)"/>
</clipPath>
</defs>
</svg>
