<svg width="36" height="36" viewBox="0 0 36 36" fill="none" xmlns="http://www.w3.org/2000/svg">
<g clip-path="url(#clip0_375_644)">
<path d="M27.1475 22.0001L30.9255 10.6667H10.4808L9.1475 6.66675H5.3335V8.00008H8.18616L12.6188 21.2987L9.64083 28.0001H28.0002V26.6667H11.6928L13.7668 22.0001H27.1475ZM29.0748 12.0001L26.1862 20.6667H13.8142L10.9255 12.0001H29.0748Z" fill="white"/>
<path d="M15.3333 31.3334C16.0697 31.3334 16.6667 30.7365 16.6667 30.0001C16.6667 29.2637 16.0697 28.6667 15.3333 28.6667C14.597 28.6667 14 29.2637 14 30.0001C14 30.7365 14.597 31.3334 15.3333 31.3334Z" fill="white"/>
<path d="M23.3333 31.3334C24.0697 31.3334 24.6667 30.7365 24.6667 30.0001C24.6667 29.2637 24.0697 28.6667 23.3333 28.6667C22.597 28.6667 22 29.2637 22 30.0001C22 30.7365 22.597 31.3334 23.3333 31.3334Z" fill="white"/>
</g>
<rect x="0.5" y="0.5" width="35" height="35" rx="7.5" stroke="white"/>
<defs>
<clipPath id="clip0_375_644">
<rect width="32" height="32" fill="white" transform="translate(2 2)"/>
</clipPath>
</defs>
</svg>
