<svg width="48" height="48" viewBox="0 0 48 48" fill="none" xmlns="http://www.w3.org/2000/svg">
<g clip-path="url(#clip0_259_11293)">
<path d="M36.019 6C37.6047 6.00185 39.1249 6.63259 40.2462 7.75384C41.3674 8.87509 41.9981 10.3953 42 11.981V36.019C41.9981 37.6047 41.3674 39.1249 40.2462 40.2462C39.1249 41.3674 37.6047 41.9981 36.019 42H11.981C10.3953 41.9981 8.87509 41.3674 7.75384 40.2462C6.63259 39.1249 6.00185 37.6047 6 36.019V11.981C6.00185 10.3953 6.63259 8.87509 7.75384 7.75384C8.87509 6.63259 10.3953 6.00185 11.981 6H36.019ZM36.019 4H11.981C10.9329 3.99987 9.89501 4.20621 8.92665 4.60725C7.95829 5.00829 7.07842 5.59616 6.33729 6.33729C5.59616 7.07842 5.00829 7.95829 4.60725 8.92665C4.20621 9.89501 3.99987 10.9329 4 11.981V36.019C3.99987 37.0671 4.20621 38.105 4.60725 39.0734C5.00829 40.0417 5.59616 40.9216 6.33729 41.6627C7.07842 42.4038 7.95829 42.9917 8.92665 43.3927C9.89501 43.7938 10.9329 44.0001 11.981 44H36.019C37.0671 44.0001 38.105 43.7938 39.0734 43.3927C40.0417 42.9917 40.9216 42.4038 41.6627 41.6627C42.4038 40.9216 42.9917 40.0417 43.3927 39.0734C43.7938 38.105 44.0001 37.0671 44 36.019V11.981C44.0001 10.9329 43.7938 9.89501 43.3927 8.92665C42.9917 7.95829 42.4038 7.07842 41.6627 6.33729C40.9216 5.59616 40.0417 5.00829 39.0734 4.60725C38.105 4.20621 37.0671 3.99987 36.019 4Z" fill="#292D51"/>
<path d="M24 33C19.038 33 15 28.963 15 24C15 19.037 19.038 15 24 15C28.962 15 33 19.037 33 24C33 28.963 28.962 33 24 33ZM24 17C20.14 17 17 20.141 17 24C17 27.859 20.14 31 24 31C27.86 31 31 27.859 31 24C31 20.141 27.86 17 24 17Z" fill="#292D51"/>
<path d="M35 15C36.1046 15 37 14.1046 37 13C37 11.8954 36.1046 11 35 11C33.8954 11 33 11.8954 33 13C33 14.1046 33.8954 15 35 15Z" fill="#292D51"/>
</g>
<defs>
<clipPath id="clip0_259_11293">
<rect width="48" height="48" fill="white"/>
</clipPath>
</defs>
</svg>
