<svg width="500" height="500" viewBox="0 0 500 500" fill="none" xmlns="http://www.w3.org/2000/svg">
<g clip-path="url(#clip0_317_14954)">
<path d="M500 0H0V500H500V0Z" fill="white"/>
<path d="M394.07 383.345C386.513 391.297 379.364 396.43 373.719 400.484C307.315 448.128 228.742 434.24 212.043 430.849C187.38 425.84 139.718 416.159 105.257 375.634C53.113 314.321 61.2316 217.725 101.672 153.961C109.07 142.298 148.145 77.5622 227.564 67.1808C275.628 60.8978 331.655 73.569 372.227 107.562C457.395 178.914 451.331 323.06 394.07 383.345Z" fill="url(#paint0_linear_317_14954)"/>
<path d="M165.202 298.597C165.202 298.597 166.344 250.619 144.247 237.78C122.15 224.942 80.1347 216.912 78.5592 148.023C77.6374 107.693 76.6388 90.0593 75.9703 82.3707C75.9085 81.6721 76.0093 80.9687 76.2649 80.3156C76.5204 79.6625 76.9237 79.0775 77.4431 78.6064C77.9626 78.1352 78.5841 77.7908 79.2589 77.6C79.9337 77.4092 80.6436 77.3773 81.3328 77.5068C102.261 81.4502 170.247 97.6779 184.501 144.084C201.399 199.092 165.202 298.597 165.202 298.597Z" fill="#91B3FA"/>
<path d="M97.5185 96.6738C120.49 117.159 147.055 153.423 161.213 189.683C163.031 195.659 168.346 208.367 170.655 230.946C172.717 249.778 171.692 269.678 169.192 282.85C169.116 283.25 168.884 283.603 168.547 283.832C168.211 284.061 167.797 284.147 167.397 284.071C165.966 283.802 166.156 282.26 166.169 282.309C169.024 259.802 167.839 231.791 161.296 206.516C152.94 175.482 134.293 145.394 115.009 119.873L113.025 117.361C98.0846 98.1738 94.939 98.0323 96.3366 96.6954C96.495 96.5443 96.7045 96.4582 96.9234 96.4542C97.1423 96.4503 97.3547 96.5286 97.5185 96.6738Z" fill="#7D97F4"/>
<path d="M200.713 390.836C203.703 392.302 172.411 352.95 162.608 291.147C157.988 262.023 157.928 225.534 141.338 211.473C127.531 199.77 80.5456 207.161 65.1723 209.967C64.7411 210.044 64.3408 210.242 64.0182 210.538C63.6957 210.835 63.4643 211.217 63.3512 211.64C63.238 212.063 63.2478 212.51 63.3794 212.928C63.511 213.345 63.7589 213.717 64.0941 213.999C71.4674 220.192 87.2383 234.795 91.3475 249.514C96.7639 268.914 115.202 281.254 131.719 284.593C148.237 287.933 157.416 291.173 165.461 317.58C173.505 343.987 192.218 386.671 200.713 390.836Z" fill="#BDD0FB"/>
<path d="M86.792 218.165C106.407 218.985 127.46 227.933 138.14 244.715L139.148 246.317C141.477 250.072 154.677 276.767 162.009 298.895C162.052 299.028 162.042 299.172 161.979 299.297C161.917 299.422 161.807 299.517 161.675 299.561C161.545 299.601 161.406 299.59 161.284 299.532C161.162 299.473 161.066 299.371 161.016 299.245C155.908 286.744 148.572 270.895 142.729 259.043C136.463 246.105 132.082 237.345 117.787 228.961C101.884 219.932 86.6815 218.988 86.7273 219.004C86.6188 218.992 86.5191 218.939 86.4492 218.855C86.3792 218.772 86.3444 218.664 86.3521 218.555C86.3598 218.446 86.4093 218.345 86.4904 218.272C86.5714 218.199 86.6775 218.16 86.7866 218.163L86.792 218.165Z" fill="#91B3FA"/>
<path d="M187.298 396.014C189.073 396.949 177.305 376.696 176.402 358.851C175.499 341.006 171.473 310.55 156.085 292.33C140.697 274.111 123.845 272.45 102.612 289.012C84.9164 302.814 73.8787 309.781 67.4056 311.074C65.8032 311.395 64.9798 313.205 65.7655 314.642C69.9164 322.287 81.655 339.844 101.364 338.613C126.504 337.035 156.972 320.689 166.257 334.326C175.543 347.964 174.352 355.588 174.636 362.049C174.92 368.51 175.558 389.824 187.298 396.014Z" fill="#91B3FA"/>
<path d="M109.745 310.889C117.446 303.504 129.989 296.25 140.951 297.603C155.214 299.894 164.716 309.424 169.898 323.602C171.919 329.622 172.757 332.836 173.955 340.215C174.051 340.804 173.182 340.98 173.036 340.405C172.166 336.938 171.302 333.309 170.011 329.556C162.493 305.339 146.445 302.077 145.821 301.581C144.608 301.701 137.253 296.19 119.8 305.587C116.523 307.368 113.379 309.383 110.392 311.618L110.375 311.631C110.275 311.704 110.151 311.737 110.029 311.723C109.906 311.708 109.793 311.648 109.713 311.554C109.633 311.459 109.592 311.338 109.598 311.215C109.604 311.091 109.657 310.975 109.745 310.889Z" fill="#7D97F4"/>
<path d="M173.44 82.2266C169.157 82.6031 165.17 84.5681 162.263 87.7354C159.355 90.9026 157.737 95.043 157.727 99.3425C157.572 153.851 157.323 341.872 160.872 408.403C161.054 411.795 162.521 414.991 164.974 417.34C167.427 419.69 170.682 421.018 174.079 421.054C208.993 421.43 309.435 422.122 366.451 418.473C372.169 418.112 377.533 415.584 381.453 411.406C385.372 407.227 387.551 401.712 387.546 395.983C387.474 337.392 386.517 170.026 378.144 99.1606C377.81 96.3459 376.512 93.7338 374.47 91.7682C372.428 89.8026 369.768 88.6049 366.943 88.3789C333.703 85.732 225.055 77.7374 173.44 82.2266Z" fill="url(#paint1_linear_317_14954)"/>
<path d="M171.742 113.631C171.058 160.262 169.105 315.355 172.513 372.599C173.01 380.967 179.51 387.572 187.536 387.852C220.578 389.003 305.308 391.231 353.59 385.92C362.284 384.963 368.928 377.429 369.16 368.302C370.373 320.728 373.629 176.266 370.318 119.661C369.789 110.631 362.891 103.426 354.242 102.843C318.463 100.433 226.595 94.8791 185.539 98.2915C177.831 98.9343 171.862 105.56 171.742 113.631Z" fill="#91B3FA"/>
<path d="M251.577 90.3333C251.589 90.9532 251.839 91.5446 252.276 91.9853C252.712 92.426 253.301 92.6823 253.92 92.7012C260.277 92.8939 278.189 93.4424 286.193 93.7308C286.561 93.7428 286.927 93.6709 287.263 93.5205C287.599 93.37 287.896 93.145 288.133 92.8625C288.369 92.5801 288.538 92.2475 288.626 91.8901C288.715 91.5326 288.721 91.1597 288.644 90.7996C288.617 90.7511 288.412 88.7713 286.391 88.6311C280.976 88.2538 264.639 87.2389 253.842 87.8616C251.625 87.9896 251.505 90.5112 251.577 90.3333Z" fill="#1F5AA9"/>
<g opacity="0.8">
<path d="M314.137 287.387C313.575 286.696 312.694 286.409 311.757 286.429L226.574 288.216L224.418 281.38C224.269 280.918 223.972 280.517 223.573 280.24C223.174 279.963 222.695 279.824 222.21 279.845L210.515 280.153C209.26 280.185 208.245 281.057 208.245 282.309C208.245 283.561 209.26 284.382 210.515 284.352L220.509 284.116L238.594 341.905C238.748 342.382 239.048 342.8 239.452 343.097C239.857 343.394 240.344 343.557 240.846 343.561L300.636 344.37C302.04 344.389 303.179 343.508 303.179 342.182C303.179 340.856 302.04 339.946 300.636 339.932L242.591 339.306L237.932 324.301L301.72 324.398C302.345 324.401 302.956 324.205 303.463 323.839C303.971 323.473 304.349 322.955 304.543 322.36L314.61 289.809C314.742 289.398 314.767 288.961 314.685 288.537C314.602 288.114 314.414 287.718 314.137 287.387Z" fill="white"/>
<path d="M249.596 347.126C244.676 347.049 240.701 350.878 240.701 355.661C240.701 360.444 244.68 364.437 249.596 364.566C254.546 364.701 258.594 360.87 258.594 356.034C258.594 351.198 254.548 347.202 249.596 347.126ZM249.596 359.915C247.296 359.862 245.431 357.998 245.431 355.759C245.431 353.521 247.296 351.733 249.596 351.777C251.895 351.82 253.783 353.684 253.783 355.934C253.783 358.185 251.904 359.973 249.596 359.915Z" fill="white"/>
<path d="M289.455 347.744C284.292 347.665 280.116 351.585 280.116 356.484C280.116 361.383 284.294 365.479 289.455 365.614C294.651 365.748 298.901 361.832 298.901 356.876C298.901 351.921 294.651 347.825 289.455 347.744ZM289.455 360.849C287.042 360.793 285.083 358.88 285.083 356.588C285.083 354.296 287.042 352.465 289.455 352.51C291.869 352.554 293.85 354.467 293.85 356.771C293.85 359.076 291.876 360.906 289.455 360.849Z" fill="white"/>
</g>
<path d="M161.473 423.035C161.473 423.035 159.38 425.992 158.458 434.525C158.437 434.713 158.455 434.904 158.511 435.085C158.566 435.267 158.658 435.435 158.78 435.58C158.903 435.724 159.054 435.842 159.224 435.927C159.393 436.011 159.579 436.06 159.768 436.07L174.93 436.84C175.072 436.848 175.213 436.821 175.343 436.763C175.472 436.705 175.586 436.617 175.675 436.507C175.764 436.396 175.825 436.266 175.854 436.126C175.883 435.987 175.878 435.843 175.84 435.707C175.085 433.031 172.724 426.484 166.915 422.517L161.473 423.035Z" fill="url(#paint2_linear_317_14954)"/>
<path d="M159.417 418.396L161.078 425.456C161.145 425.753 161.311 426.018 161.548 426.209C161.786 426.399 162.081 426.504 162.385 426.505C163.46 426.519 164.532 426.388 165.572 426.116C166.076 425.966 166.51 425.643 166.798 425.205C167.086 424.766 167.21 424.24 167.148 423.718L166.369 416.81L159.417 418.396Z" fill="url(#paint3_linear_317_14954)"/>
<path d="M196.101 423.56C196.101 423.56 193.039 427.972 192.885 434.17C192.876 434.874 193.144 435.554 193.631 436.062C194.119 436.57 194.786 436.867 195.49 436.887L219.055 437.709C219.295 437.717 219.531 437.649 219.729 437.514C219.928 437.379 220.078 437.184 220.158 436.958C220.238 436.732 220.244 436.486 220.175 436.256C220.106 436.026 219.966 435.824 219.774 435.68C215.425 432.392 206.865 426.236 200.605 423.717L196.101 423.56Z" fill="url(#paint4_linear_317_14954)"/>
<path d="M195.513 416.038L196.117 425.097C196.131 425.339 196.193 425.576 196.298 425.794C196.404 426.012 196.552 426.207 196.734 426.367C196.915 426.527 197.127 426.65 197.356 426.728C197.586 426.807 197.828 426.839 198.07 426.823C198.821 426.755 199.555 426.56 200.241 426.246C200.621 426.071 200.94 425.788 201.158 425.432C201.376 425.075 201.483 424.662 201.465 424.244L201.06 413.314L195.513 416.038Z" fill="url(#paint5_linear_317_14954)"/>
<path d="M148.598 296.542C148.598 296.542 142.899 302.834 142.465 309.681C142.031 316.527 158.895 425.116 158.895 425.116C158.895 425.116 165.342 425.454 168.381 423.111C168.381 423.111 164.267 351.868 165.364 335.174C165.364 335.174 189.056 406.782 194.823 419.553C194.823 419.553 201.004 419.607 202.839 418.225C202.839 418.225 188.079 323.604 181.097 307.272L148.598 296.542Z" fill="url(#paint6_linear_317_14954)"/>
<path d="M164.845 333.129C164.658 333.129 164.476 333.073 164.322 332.967C164.169 332.862 164.051 332.712 163.984 332.538L160.263 322.867L154.358 319.954C154.146 319.842 153.986 319.651 153.913 319.422C153.839 319.194 153.857 318.946 153.963 318.73C154.07 318.515 154.256 318.35 154.482 318.269C154.708 318.189 154.957 318.2 155.175 318.299L161.403 321.371C161.611 321.473 161.772 321.65 161.856 321.867L165.706 331.875C165.76 332.015 165.779 332.165 165.761 332.314C165.744 332.463 165.69 332.605 165.605 332.729C165.521 332.852 165.407 332.953 165.275 333.023C165.142 333.093 164.995 333.129 164.845 333.129Z" fill="url(#paint7_linear_317_14954)"/>
<path d="M203.942 226.458C177.052 227.251 170.71 233.549 170.71 233.549L185.792 252.317C185.792 252.317 211.911 248.849 229.037 232.276C225.101 228.892 222.191 224.989 220.261 221.913C215.651 224.468 210.214 226.281 203.942 226.458Z" fill="url(#paint8_linear_317_14954)"/>
<path d="M245.086 189.006C244.951 188.157 242.69 181.135 238.163 184.995L237.085 190.151C236.586 191.627 236.552 193.22 236.989 194.715L238.657 198.802C238.949 199.799 239.025 200.847 238.882 201.876C238.738 202.905 238.378 203.892 237.825 204.771C235.141 209.027 229.294 216.91 220.267 221.913C222.197 224.99 225.106 228.892 229.043 232.277C235.327 226.197 240.403 218.355 242.531 208.269C243.256 207.953 243.856 207.407 244.239 206.715C244.622 206.023 244.765 205.224 244.647 204.442L245.086 189.006Z" fill="url(#paint9_linear_317_14954)"/>
<path d="M214.032 237.188C203.52 228.14 185.136 225.588 174.582 224.879C172.344 224.723 170.123 225.361 168.308 226.68C166.493 227.998 165.2 229.914 164.656 232.091C161.412 245.127 152.424 279.105 150.601 284.976C149.106 289.793 147.509 294.512 146.491 297.465C146.196 298.311 146.249 299.24 146.639 300.047C147.028 300.854 147.721 301.474 148.566 301.771C157.74 304.985 173.933 307.971 180.489 309.1C180.825 309.158 181.169 309.137 181.496 309.039C181.822 308.941 182.12 308.768 182.368 308.534C182.616 308.3 182.805 308.012 182.922 307.692C183.039 307.371 183.079 307.029 183.04 306.69C182.901 305.457 183.1 304.209 183.616 303.08L203.139 260.306C219.997 275.232 233.291 275.266 242.961 270.499C240.717 265.573 239.004 260.423 237.85 255.135C222.67 254.258 214.032 237.188 214.032 237.188Z" fill="url(#paint10_linear_317_14954)"/>
<path d="M262.151 249.566L259.059 246.286C251.032 253.243 243.919 255.479 237.85 255.13C239.003 260.418 240.717 265.568 242.961 270.494C255.702 264.211 262.151 249.566 262.151 249.566Z" fill="url(#paint11_linear_317_14954)"/>
<path d="M260.262 249.845L275.47 248.728L288.533 239.369C286.39 238.341 275.363 242.181 275.363 242.181C275.363 242.181 263.332 241.725 260.134 242.082C257.475 242.379 258.287 246.159 258.637 247.433C258.708 247.691 258.761 247.848 258.761 247.848L260.262 249.845Z" fill="url(#paint12_linear_317_14954)"/>
<path d="M186.716 204.717L180.92 225.112C180.92 225.112 190.815 230.43 198.132 228.994L200.143 211.015L186.716 204.717Z" fill="url(#paint13_linear_317_14954)"/>
<path d="M198.711 189.903C198.923 190.143 206.798 209.729 206.798 209.729L195.519 213.988L185.296 196.534C185.296 196.534 195.159 185.91 198.711 189.903Z" fill="url(#paint14_linear_317_14954)"/>
<path d="M189.985 198.832L194.647 208.442C194.706 208.564 194.781 208.678 194.872 208.779C195.429 209.407 197.5 211.425 199.435 209.183C201.187 207.146 202.823 205.311 204.468 204.827C204.824 204.722 205.206 204.753 205.54 204.914C205.875 205.076 206.137 205.356 206.275 205.701C206.989 207.481 208.527 211.522 209.326 215.236C209.404 215.6 209.342 215.979 209.153 216.3C208.963 216.62 208.661 216.857 208.305 216.965C206.085 217.651 201.364 218.968 197.317 219.137C197.048 219.15 196.781 219.09 196.544 218.963C196.306 218.837 196.108 218.648 195.969 218.418C194.59 216.127 190.373 209.172 188.899 207.416C187.515 205.768 184.619 206.146 183.415 206.391C183.22 206.431 183.019 206.431 182.824 206.39C182.629 206.35 182.445 206.27 182.282 206.156C181.113 205.348 178.818 203.191 181.346 200.017C181.472 199.861 181.565 199.681 181.62 199.488C181.674 199.295 181.69 199.093 181.664 198.894C181.639 198.694 181.574 198.502 181.473 198.329C181.372 198.156 181.237 198.004 181.077 197.884C179.729 196.872 178.185 194.978 179.938 192.224C181.72 189.418 184.501 189.519 186.247 189.942C186.587 190.022 186.945 189.979 187.258 189.822C187.57 189.664 187.818 189.402 187.957 189.081C188.127 188.703 188.464 188.396 189.104 188.379C189.308 188.37 189.509 188.318 189.692 188.227C189.875 188.136 190.037 188.007 190.168 187.85C190.299 187.692 190.395 187.509 190.451 187.312C190.507 187.115 190.521 186.909 190.492 186.706C190.278 185.061 190.627 182.912 193.391 181.701C198.286 179.544 202.001 184.093 202.726 187.716C203.451 191.338 198.009 193.367 194.694 193.491C192.171 193.586 190.593 196.275 189.977 197.559C189.884 197.759 189.836 197.976 189.838 198.196C189.839 198.416 189.889 198.633 189.985 198.832Z" fill="url(#paint15_linear_317_14954)"/>
<path d="M190.632 210.894C190.632 210.894 189.097 204.638 186.42 204.624C183.744 204.611 181.419 207.072 184.446 210.338C188.213 214.403 190.632 210.894 190.632 210.894Z" fill="url(#paint16_linear_317_14954)"/>
<path d="M265.322 247.121C262.246 247.322 259.392 245.892 257.794 243.336L231.063 200.411C228.558 196.388 229.907 190.879 234.077 188.107C238.246 185.334 243.645 186.346 246.149 190.368L264.69 220.165L289.149 170.351C291.345 165.88 296.618 163.829 300.927 165.768C305.236 167.708 306.947 172.899 304.756 177.368L273.144 241.801C271.697 244.751 268.819 246.787 265.631 247.101C265.527 247.105 265.424 247.115 265.322 247.121Z" fill="#0000FF"/>
<path d="M345.1 306.654C344.804 306.654 344.52 306.539 344.308 306.333C344.096 306.127 343.973 305.847 343.963 305.552C343.951 305.138 343.694 295.309 346.582 284.808C350.481 270.666 358.307 262.286 369.194 260.57C374.532 259.731 379.29 260.991 383.333 264.316C396.512 275.157 397.765 304.24 397.813 305.473C397.824 305.775 397.715 306.069 397.51 306.29C397.408 306.399 397.286 306.488 397.151 306.55C397.015 306.613 396.868 306.648 396.719 306.653C396.417 306.665 396.124 306.556 395.902 306.351C395.681 306.146 395.55 305.861 395.539 305.56C395.528 305.269 394.277 276.26 381.885 266.072C378.366 263.178 374.215 262.083 369.548 262.818C345.334 266.63 346.225 305.093 346.233 305.481C346.242 305.783 346.131 306.076 345.924 306.295C345.718 306.515 345.432 306.644 345.131 306.653L345.1 306.654Z" fill="#39B54A"/>
<path d="M297.19 431.189L316.732 296.418L390.152 295.184L413.818 438.68H303.547C299.624 438.68 296.617 435.136 297.19 431.189Z" fill="#39B54A"/>
<path d="M404.412 296.413L390.153 295.178L413.818 438.68H427.969C430.839 438.68 432.984 435.996 432.399 433.139L404.412 296.413Z" fill="#39B54A"/>
<path d="M380.899 306.345C380.605 306.345 380.322 306.231 380.111 306.027C379.899 305.823 379.774 305.545 379.763 305.251C379.752 304.96 378.501 275.952 366.109 265.763C362.59 262.87 358.441 261.774 353.772 262.51C329.577 266.318 330.449 304.785 330.457 305.173C330.461 305.472 330.348 305.76 330.142 305.976C329.936 306.192 329.653 306.318 329.354 306.327C329.056 306.337 328.766 306.228 328.547 306.025C328.328 305.822 328.197 305.541 328.183 305.243C328.171 304.829 327.914 295 330.802 284.499C334.701 270.358 342.527 261.977 353.414 260.262C358.752 259.422 363.509 260.682 367.552 264.007C380.732 274.848 381.985 303.932 382.032 305.165C382.038 305.314 382.014 305.463 381.962 305.603C381.911 305.743 381.832 305.872 381.73 305.981C381.629 306.091 381.507 306.179 381.371 306.241C381.235 306.304 381.088 306.339 380.939 306.344L380.899 306.345Z" fill="#39B54A"/>
<path d="M179.215 61.321C178.272 61.3115 177.399 61.6727 176.888 62.5083C166.143 80.073 155.391 98.2671 144.649 115.061L175.806 115.376C184.105 98.5568 192.424 79.8062 200.738 61.5393L179.215 61.321Z" fill="#39B54A"/>
<path d="M206.958 116.099L175.802 115.783L200.734 61.6646L223.763 61.8977C218.163 79.9642 212.562 98.0311 206.958 116.099Z" fill="#39B54A"/>
<path d="M238.114 116.414L206.958 116.099C212.561 98.0314 218.163 79.9644 223.764 61.8979L246.794 62.1298C243.9 80.2259 241.007 98.3207 238.114 116.414Z" fill="#39B54A"/>
<path d="M269.272 116.729L238.116 116.414C241.007 98.3194 243.9 80.2246 246.794 62.1294L269.822 62.3625C269.635 80.4856 269.452 98.6078 269.272 116.729Z" fill="#39B54A"/>
<path d="M300.428 117.045L269.272 116.729C269.456 98.6081 269.64 80.4859 269.823 62.3628L292.857 62.5959C295.378 80.746 297.902 98.8956 300.428 117.045Z" fill="#39B54A"/>
<path d="M331.585 117.36L300.428 117.045C297.903 98.8955 295.377 80.7463 292.85 62.5972L315.878 62.8303C321.113 81.0055 326.348 99.1821 331.585 117.36Z" fill="#39B54A"/>
<path d="M362.741 117.675L331.585 117.36C326.348 99.184 321.113 81.007 315.878 62.8291L338.908 63.0623C346.851 81.2671 354.796 99.4715 362.741 117.675Z" fill="#39B54A"/>
<path d="M362.733 64.3881C362.238 63.5418 361.368 63.1644 360.43 63.155L338.908 62.938C346.85 81.3706 354.787 100.286 362.745 117.268L393.039 117.575C393.387 117.575 393.585 117.066 393.37 116.714C383.154 99.9488 372.945 81.8639 362.733 64.3881Z" fill="#39B54A"/>
<path d="M144.943 115.063C144.539 115.063 144.196 115.484 144.191 116.007L144.106 124.469C144.027 132.313 151.486 138.306 160.067 138.392H160.401C168.982 138.479 175.924 132.631 176.004 124.78L176.099 115.363L144.943 115.063Z" fill="#39B54A"/>
<path d="M176.099 115.379L176.01 124.798C175.931 132.642 182.504 138.627 190.939 138.712H191.268C199.705 138.797 206.462 132.946 206.541 125.1L206.636 115.682L176.099 115.379Z" fill="#39B54A"/>
<path d="M206.629 115.688L206.535 125.105C206.455 132.949 213.742 138.941 222.323 139.028H222.656C231.237 139.116 237.897 133.264 237.977 125.417L238.071 115.999L206.629 115.688Z" fill="#39B54A"/>
<path d="M238.071 116.006L237.977 125.424C237.897 133.267 244.752 139.255 253.188 139.34H253.516C261.952 139.425 268.88 133.577 268.963 125.728L269.058 116.31L238.071 116.006Z" fill="#39B54A"/>
<path d="M269.058 116.32L268.964 125.738C268.884 133.581 275.997 139.572 284.578 139.658H284.912C293.493 139.744 299.872 133.891 299.949 126.046L300.044 116.628L269.058 116.32Z" fill="#39B54A"/>
<path d="M300.044 116.634L299.948 126.052C299.87 133.895 307.006 139.886 315.447 139.971H315.775C324.211 140.057 331.316 134.211 331.394 126.367L331.49 116.949L300.044 116.634Z" fill="#39B54A"/>
<path d="M331.486 116.952L331.391 126.369C331.313 134.213 338.252 140.201 346.833 140.289H347.167C355.748 140.375 362.755 134.528 362.834 126.685L362.929 117.267L331.486 116.952Z" fill="#39B54A"/>
<path d="M362.929 117.27L362.834 126.687C362.755 134.531 369.263 140.515 377.698 140.6H378.027C386.462 140.685 393.284 134.836 393.364 126.988L393.46 117.57L362.929 117.27Z" fill="#39B54A"/>
<path d="M193.686 127.021C193.739 127.021 193.791 126.999 193.829 126.961C193.866 126.923 193.888 126.872 193.888 126.818C193.888 126.765 193.866 126.713 193.829 126.675C193.791 126.638 193.739 126.616 193.686 126.616C193.632 126.616 193.581 126.638 193.543 126.675C193.505 126.713 193.483 126.765 193.483 126.818C193.483 126.872 193.505 126.923 193.543 126.961C193.581 126.999 193.632 127.021 193.686 127.021Z" fill="#39B54A"/>
<path d="M198.026 85.294C198.121 87.7295 198.559 90.1394 199.326 92.453C200.87 97.1002 203.613 101.258 207.278 104.506C208.189 105.311 209.155 106.052 210.168 106.724C210.667 107.055 211.178 107.37 211.701 107.667C212.266 108.007 212.857 108.301 213.469 108.549C214.047 108.763 214.682 108.797 215.232 108.507C215.675 108.253 216.032 107.873 216.257 107.415C216.79 106.423 216.896 105.27 216.95 104.165C217.054 101.86 216.755 99.5552 216.067 97.3533C214.681 92.9155 211.949 89.0184 208.251 86.201C206.418 84.799 204.356 83.7264 202.156 83.0312C201.594 82.8485 201.02 82.7031 200.438 82.5958C199.834 82.4934 199.185 82.4611 198.606 82.6902C197.341 83.1996 197.241 84.6484 197.21 85.8263C197.138 88.6254 197.42 91.4223 198.047 94.1511C198.67 96.8704 199.625 99.5025 200.892 101.988C201.527 103.235 202.241 104.44 203.03 105.596C203.779 106.693 204.579 107.81 205.632 108.636C206.15 109.054 206.739 109.373 207.371 109.58C208.067 109.784 208.794 109.869 209.519 109.83C210.867 109.779 212.214 109.476 213.503 109.088C215.945 108.349 218.23 107.156 220.327 105.718C222.484 104.236 224.455 102.501 226.315 100.666C227.259 99.7373 228.168 98.7791 229.066 97.8128C229.515 97.3312 229.958 96.8465 230.393 96.3586C230.852 95.8829 231.285 95.3827 231.69 94.86C232.053 94.3586 232.287 93.7697 232.166 93.1457C232.076 92.7215 231.823 92.3496 231.461 92.1107C230.682 91.5716 229.582 91.5352 228.672 91.6349C228.075 91.7189 227.483 91.8423 226.902 92.0042C226.134 92.1938 225.371 92.3887 224.61 92.5891C223.083 92.9889 221.561 93.4085 220.044 93.8479C217.011 94.7266 214.001 95.6834 211.015 96.7185C209.577 97.2171 208.144 97.7342 206.716 98.2697C206.473 98.36 206.581 98.7508 206.822 98.6592C209.697 97.581 212.597 96.5761 215.522 95.6444C218.446 94.7126 221.382 93.8591 224.33 93.0837C225.071 92.8878 225.814 92.6969 226.559 92.5109C227.181 92.3546 227.805 92.1713 228.438 92.0729C229.306 91.9382 230.362 91.926 231.143 92.3869C231.308 92.4784 231.452 92.6053 231.562 92.7586C231.673 92.9119 231.748 93.0879 231.783 93.2737C231.892 93.9031 231.513 94.4745 231.128 94.9355C230.311 95.9126 229.426 96.8425 228.558 97.7751C226.833 99.6553 225 101.433 223.067 103.1C221.164 104.717 219.115 106.17 216.883 107.293C215.78 107.851 214.632 108.314 213.451 108.677C212.203 109.058 210.891 109.359 209.588 109.418C208.878 109.462 208.166 109.383 207.484 109.185C206.865 108.982 206.291 108.661 205.794 108.241C204.784 107.409 204.012 106.317 203.286 105.24C201.768 102.989 200.533 100.559 199.61 98.0055C198.681 95.4446 198.067 92.7798 197.783 90.0702C197.643 88.7273 197.587 87.377 197.615 86.0271C197.637 84.9274 197.631 83.3708 198.933 83.0015C199.515 82.8357 200.145 82.9287 200.728 83.0581C201.267 83.1794 201.806 83.3276 202.333 83.5055C203.394 83.8543 204.421 84.2972 205.403 84.829C207.372 85.8995 209.156 87.2792 210.687 88.9152C212.223 90.548 213.502 92.4037 214.482 94.4193C215.463 96.4227 216.114 98.5711 216.41 100.782C216.553 101.891 216.598 103.011 216.544 104.128C216.495 105.189 216.402 106.313 215.871 107.258C215.645 107.662 215.331 108.041 214.884 108.209C214.245 108.452 213.594 108.185 213.017 107.899C211.957 107.37 210.936 106.767 209.962 106.093C208.026 104.749 206.278 103.153 204.764 101.348C203.24 99.5355 201.956 97.5343 200.943 95.3937C199.93 93.264 199.205 91.0088 198.787 88.6875C198.589 87.5658 198.468 86.432 198.424 85.294C198.415 85.0338 198.011 85.0325 198.02 85.294H198.026Z" fill="#39B54A"/>
</g>
<defs>
<linearGradient id="paint0_linear_317_14954" x1="484.573" y1="544.472" x2="155.59" y2="135.896" gradientUnits="userSpaceOnUse">
<stop stop-color="#DAE3FE"/>
<stop offset="1" stop-color="#E9EFFD"/>
</linearGradient>
<linearGradient id="paint1_linear_317_14954" x1="156.878" y1="252.965" x2="385.833" y2="247.969" gradientUnits="userSpaceOnUse">
<stop stop-color="#09005D"/>
<stop offset="1" stop-color="#1A0F91"/>
</linearGradient>
<linearGradient id="paint2_linear_317_14954" x1="158.699" y1="429.011" x2="176.147" y2="429.898" gradientUnits="userSpaceOnUse">
<stop stop-color="#09005D"/>
<stop offset="1" stop-color="#1A0F91"/>
</linearGradient>
<linearGradient id="paint3_linear_317_14954" x1="159.837" y1="422.21" x2="166.877" y2="421.416" gradientUnits="userSpaceOnUse">
<stop stop-color="#FEBBBA"/>
<stop offset="1" stop-color="#FF928E"/>
</linearGradient>
<linearGradient id="paint4_linear_317_14954" x1="193.032" y1="430.124" x2="220.427" y2="431.081" gradientUnits="userSpaceOnUse">
<stop stop-color="#09005D"/>
<stop offset="1" stop-color="#1A0F91"/>
</linearGradient>
<linearGradient id="paint5_linear_317_14954" x1="195.046" y1="419.432" x2="202.026" y2="420.392" gradientUnits="userSpaceOnUse">
<stop stop-color="#FEBBBA"/>
<stop offset="1" stop-color="#FF928E"/>
</linearGradient>
<linearGradient id="paint6_linear_317_14954" x1="333.864" y1="139.127" x2="215.079" y2="302.998" gradientUnits="userSpaceOnUse">
<stop stop-color="#09005D"/>
<stop offset="1" stop-color="#1A0F91"/>
</linearGradient>
<linearGradient id="paint7_linear_317_14954" x1="153.843" y1="325.667" x2="165.768" y2="325.667" gradientUnits="userSpaceOnUse">
<stop stop-color="#4F52FF"/>
<stop offset="1" stop-color="#4042E2"/>
</linearGradient>
<linearGradient id="paint8_linear_317_14954" x1="218.485" y1="99.2549" x2="208.475" y2="171.14" gradientUnits="userSpaceOnUse">
<stop stop-color="#4F52FF"/>
<stop offset="1" stop-color="#4042E2"/>
</linearGradient>
<linearGradient id="paint9_linear_317_14954" x1="218.894" y1="209.848" x2="247.07" y2="206.672" gradientUnits="userSpaceOnUse">
<stop stop-color="#FEBBBA"/>
<stop offset="1" stop-color="#FF928E"/>
</linearGradient>
<linearGradient id="paint10_linear_317_14954" x1="225.938" y1="211.475" x2="158.602" y2="331.585" gradientUnits="userSpaceOnUse">
<stop stop-color="#4F52FF"/>
<stop offset="1" stop-color="#4042E2"/>
</linearGradient>
<linearGradient id="paint11_linear_317_14954" x1="278.35" y1="207.936" x2="230.009" y2="284.223" gradientUnits="userSpaceOnUse">
<stop stop-color="#FEBBBA"/>
<stop offset="1" stop-color="#FF928E"/>
</linearGradient>
<linearGradient id="paint12_linear_317_14954" x1="289.976" y1="215.302" x2="241.632" y2="291.59" gradientUnits="userSpaceOnUse">
<stop stop-color="#FEBBBA"/>
<stop offset="1" stop-color="#FF928E"/>
</linearGradient>
<linearGradient id="paint13_linear_317_14954" x1="210.331" y1="172.793" x2="167.152" y2="278.984" gradientUnits="userSpaceOnUse">
<stop stop-color="#FEBBBA"/>
<stop offset="1" stop-color="#FF928E"/>
</linearGradient>
<linearGradient id="paint14_linear_317_14954" x1="195.244" y1="193.154" x2="198.439" y2="233.19" gradientUnits="userSpaceOnUse">
<stop stop-color="#FEBBBA"/>
<stop offset="1" stop-color="#FF928E"/>
</linearGradient>
<linearGradient id="paint15_linear_317_14954" x1="186.559" y1="211.222" x2="208.177" y2="191.995" gradientUnits="userSpaceOnUse">
<stop stop-color="#09005D"/>
<stop offset="1" stop-color="#1A0F91"/>
</linearGradient>
<linearGradient id="paint16_linear_317_14954" x1="185.6" y1="235.686" x2="186.87" y2="207.884" gradientUnits="userSpaceOnUse">
<stop stop-color="#FEBBBA"/>
<stop offset="1" stop-color="#FF928E"/>
</linearGradient>
<clipPath id="clip0_317_14954">
<rect width="500" height="500" rx="28" fill="white"/>
</clipPath>
</defs>
</svg>
