<svg width="23" height="23" viewBox="0 0 23 23" fill="none" xmlns="http://www.w3.org/2000/svg">
<path d="M14.3004 5C15.2772 5.19057 16.1748 5.66826 16.8785 6.37194C17.5822 7.07561 18.0599 7.97326 18.2504 8.95M14.3004 1C16.3297 1.22544 18.222 2.13417 19.6667 3.57701C21.1113 5.01984 22.0224 6.91101 22.2504 8.94M21.2504 16.92V19.92C21.2516 20.1985 21.1945 20.4742 21.0829 20.7293C20.9714 20.9845 20.8077 21.2136 20.6025 21.4019C20.3973 21.5901 20.155 21.7335 19.8912 21.8227C19.6273 21.9119 19.3478 21.9451 19.0704 21.92C15.9933 21.5856 13.0374 20.5341 10.4404 18.85C8.02425 17.3147 5.97576 15.2662 4.44042 12.85C2.7504 10.2412 1.69866 7.27099 1.37042 4.18C1.34543 3.90347 1.3783 3.62476 1.46692 3.36162C1.55555 3.09849 1.69799 2.85669 1.88519 2.65162C2.07238 2.44655 2.30023 2.28271 2.55421 2.17052C2.8082 2.05833 3.08276 2.00026 3.36042 2H6.36042C6.84573 1.99522 7.31621 2.16708 7.68418 2.48353C8.05215 2.79999 8.2925 3.23945 8.36042 3.72C8.48704 4.68007 8.72187 5.62273 9.06042 6.53C9.19497 6.88792 9.22408 7.27691 9.14433 7.65088C9.06457 8.02485 8.87928 8.36811 8.61042 8.64L7.34042 9.91C8.76398 12.4135 10.8369 14.4864 13.3404 15.91L14.6104 14.64C14.8823 14.3711 15.2256 14.1858 15.5995 14.1061C15.9735 14.0263 16.3625 14.0555 16.7204 14.19C17.6277 14.5286 18.5704 14.7634 19.5304 14.89C20.0162 14.9585 20.4598 15.2032 20.777 15.5775C21.0941 15.9518 21.2626 16.4296 21.2504 16.92Z" stroke="white" stroke-linecap="round" stroke-linejoin="round"/>
</svg>
