<svg width="68" height="68" viewBox="0 0 68 68" fill="none" xmlns="http://www.w3.org/2000/svg">
<path d="M0.575195 27.3781H7.24186V67.3781H60.5752V27.3781H67.2419L33.9085 0.711426L0.575195 27.3781ZM57.2419 24.0448V27.3781V64.0448H10.5752V27.3781V24.0448H10.0785L33.9085 4.97976L57.7385 24.0448H57.2419Z" fill="black"/>
<path d="M25.667 32.3333C25.667 36.935 29.3987 40.6667 34.0003 40.6667C38.602 40.6667 42.3337 36.935 42.3337 32.3333C42.3337 27.7317 38.602 24 34.0003 24C29.3987 24 25.667 27.7317 25.667 32.3333ZM34.0003 27.3333C36.757 27.3333 39.0003 29.5767 39.0003 32.3333C39.0003 35.09 36.757 37.3333 34.0003 37.3333C31.2437 37.3333 29.0003 35.09 29.0003 32.3333C29.0003 29.5767 31.2437 27.3333 34.0003 27.3333Z" fill="black"/>
<path d="M20.667 54.0448H47.4253C47.4253 46.6532 41.4387 40.6665 34.047 40.6665C26.6553 40.6665 20.667 46.6532 20.667 54.0448ZM43.5237 50.7115H24.5687C25.947 46.8065 29.6753 43.9998 34.0453 43.9998C38.4153 43.9998 42.1453 46.8065 43.5237 50.7115Z" fill="black"/>
</svg>
