<svg width="20" height="21" viewBox="0 0 20 21" fill="none" xmlns="http://www.w3.org/2000/svg">
<path d="M17.3437 1.94921C16.8476 1.49218 14.8398 0.0351481 10.3632 0.0156168C10.3632 0.0156168 5.08586 -0.300789 2.51554 2.05859C1.08585 3.48827 0.581949 5.58593 0.527261 8.18359C0.472574 10.7812 0.406167 15.6484 5.09757 16.9687H5.10148L5.09757 18.9844C5.09757 18.9844 5.06632 19.8008 5.60539 19.9648C6.25382 20.168 6.63664 19.5469 7.25773 18.8789C7.59757 18.5117 8.06632 17.9726 8.42179 17.5625C11.6327 17.832 14.0976 17.2148 14.3788 17.125C15.0273 16.9141 18.6952 16.4453 19.289 11.5781C19.9062 6.55468 18.9921 3.3828 17.3437 1.94921ZM17.8866 11.2109C17.3827 15.2734 14.4101 15.5312 13.8632 15.707C13.6288 15.7812 11.4609 16.3203 8.7382 16.1445C8.7382 16.1445 6.70695 18.5937 6.07414 19.2305C5.8671 19.4375 5.64054 19.418 5.64445 19.0078C5.64445 18.7383 5.66007 15.6601 5.66007 15.6601C5.65617 15.6601 5.65617 15.6601 5.66007 15.6601C1.68351 14.5586 1.91789 10.4141 1.96085 8.24609C2.00382 6.07812 2.41398 4.30077 3.62492 3.10546C5.8007 1.1328 10.2812 1.42577 10.2812 1.42577C14.0663 1.4414 15.8788 2.58202 16.3007 2.96484C17.6952 4.16015 18.4062 7.01952 17.8866 11.2109ZM12.4569 8.05468C12.4726 8.39062 11.9687 8.41405 11.953 8.07812C11.9101 7.21874 11.5077 6.80077 10.6796 6.7539C10.3437 6.73437 10.3749 6.23046 10.7069 6.24999C11.7968 6.30859 12.4023 6.93359 12.4569 8.05468ZM13.2499 8.49609C13.289 6.83984 12.2538 5.54296 10.289 5.39843C9.95695 5.37499 9.9921 4.87109 10.3241 4.89452C12.5898 5.05859 13.7968 6.61718 13.7538 8.5078C13.7499 8.84374 13.2421 8.82812 13.2499 8.49609ZM15.0859 9.01952C15.0898 9.35546 14.5819 9.35937 14.5819 9.02343C14.5585 5.83984 12.4374 4.10546 9.8632 4.08593C9.53117 4.08202 9.53117 3.58202 9.8632 3.58202C12.7421 3.60155 15.0585 5.58984 15.0859 9.01952ZM14.6444 12.8516V12.8594C14.2226 13.6016 13.4335 14.4219 12.621 14.1601L12.6132 14.1484C11.789 13.918 9.84757 12.918 8.62101 11.9414C7.9882 11.4414 7.41007 10.8516 6.96476 10.2851C6.56242 9.78124 6.15617 9.18359 5.76164 8.46484C4.9296 6.96093 4.74601 6.28905 4.74601 6.28905C4.48429 5.47655 5.3007 4.68749 6.04679 4.26562H6.0546C6.41398 4.07812 6.75773 4.14062 6.9882 4.41796C6.9882 4.41796 7.47257 4.99609 7.67961 5.28124C7.87492 5.54687 8.13664 5.97265 8.27335 6.21093C8.51164 6.63671 8.3632 7.0703 8.12882 7.24999L7.66007 7.62499C7.42179 7.8164 7.45304 8.17187 7.45304 8.17187C7.45304 8.17187 8.14836 10.8008 10.746 11.4648C10.746 11.4648 11.1015 11.4961 11.2929 11.2578L11.6679 10.7891C11.8476 10.5547 12.2812 10.4062 12.7069 10.6445C13.2812 10.9687 14.0116 11.4726 14.496 11.9297C14.7694 12.1523 14.8319 12.4922 14.6444 12.8516Z" fill="white"/>
</svg>
